<svg width="167" height="32" xmlns="http://www.w3.org/2000/svg">
 <!-- Generator: Sketch 53.2 (72643) - https://sketchapp.com -->

 <title>balenaCam_blue_white</title>
 <desc>Created with Sketch.</desc>
 <g>
  <title>background</title>
  <rect fill="none" id="canvas_background" height="402" width="582" y="-1" x="-1"/>
 </g>
 <g>
  <title>Layer 1</title>
  <g fill-rule="evenodd" fill="none" id="Page-1">
   <g id="Artboard">
    <g id="balenaCam_blue_white">
     <path fill="#64FFFF" id="Fill-18" d="m11.346849,14.628342c0,-1.817647 1.475146,-3.291153 3.294247,-3.291153c1.819101,0 3.294247,1.473506 3.294247,3.291153c0,1.818106 -1.475146,3.291612 -3.294247,3.291612c-1.819101,0 -3.294247,-1.473506 -3.294247,-3.291612m7.412055,0c0,-2.272058 -1.843932,-4.114056 -4.117808,-4.114056c-2.273876,0 -4.117808,1.841998 -4.117808,4.114056c0,2.272517 1.843932,4.114515 4.117808,4.114515c2.273876,0 4.117808,-1.841998 4.117808,-4.114515"/>
     <path fill="#64FFFF" id="Fill-19" d="m15.007287,13.531102c0.394391,0.023689 0.708269,0.337777 0.731973,0.73151c0,0.202176 0.163478,0.365959 0.366191,0.365959c0.201895,0 0.365782,-0.163783 0.365782,-0.365959c-0.021252,-0.798902 -0.664538,-1.441782 -1.463946,-1.462612c-0.201896,0 -0.366191,0.163375 -0.366191,0.365142c0,0.202585 0.164295,0.36596 0.366191,0.36596"/>
     <path fill="#64FFFF" id="Fill-20" d="m20.245163,22.954433l-11.208033,0l0,-0.972548l2.705449,-1.376256c1.819428,0.952933 3.977707,0.952933 5.796688,0l2.705896,1.376256l0,0.972548zm-11.208033,-8.169951c0,-3.1585 2.508754,-5.71851 5.604017,-5.71851c3.095262,0 5.604016,2.56001 5.604016,5.71851c0,3.1585 -2.508754,5.718966 -5.604016,5.718966c-3.095263,0 -5.604017,-2.560466 -5.604017,-5.718966l0,0zm11.78873,6.581122l-2.477909,-1.270882c2.88471,-2.089245 3.563754,-6.168746 1.516339,-9.112392c-2.047415,-2.943646 -6.045239,-3.636564 -8.929948,-1.547319c-2.88471,2.088789 -3.563754,6.168747 -1.516786,9.112393c0.417083,0.598947 0.929383,1.122171 1.516786,1.547318l-2.477909,1.270882c-0.134557,0.068881 -0.219493,0.20938 -0.21994,0.363109l0,1.634446c0,0.225347 0.178813,0.40827 0.400095,0.40827l12.009117,0c0.221282,0 0.400096,-0.182923 0.400096,-0.40827l0,-1.634446c-0.000447,-0.153729 -0.085384,-0.294228 -0.219941,-0.363109l0,0z"/>
     <path fill="#64FFFF" id="Fill-17" d="m12.346003,0.592794l-10.068419,5.676529c-0.57961,0.327371 -1.084692,0.787226 -1.471248,1.340229l-0.489818,0.905695c-0.210114,0.522255 -0.316518,1.062145 -0.316518,1.607008l0,11.79302c0,1.585756 0.872782,3.061636 2.277584,3.852027l10.068419,5.677887c0.530673,0.298883 1.116568,0.484725 1.746013,0.553907l1.047877,0.000904c0.630342,-0.067825 1.217135,-0.253215 1.749604,-0.552098l10.110173,-5.681504c1.407495,-0.791296 2.282522,-2.268984 2.282522,-3.856097l0,-11.783524c0,-0.610428 -0.132893,-1.209552 -0.394638,-1.784711l-0.529326,-0.883991c-0.375332,-0.491959 -0.831477,-0.891225 -1.358558,-1.186943l-10.110173,-5.681051c-0.699932,-0.393387 -1.484717,-0.590081 -2.269053,-0.590081c-0.786582,0 -1.573163,0.197598 -2.274441,0.592794zm4.105756,0.787226l10.110622,5.681051c0.404963,0.227441 0.759194,0.533559 1.053713,0.910216l0.475451,0.7922c0.193951,0.442222 0.292723,0.901173 0.292723,1.36329l0,11.783524c0,1.259743 -0.697687,2.43493 -1.821887,3.066158l-10.110173,5.681503c-0.412596,0.231511 -0.870537,0.378918 -1.36215,0.4377l-0.946412,-0.000904c-0.490715,-0.059687 -0.948207,-0.207094 -1.359008,-0.438604l-10.069317,-5.677886c-1.121057,-0.630776 -1.817397,-1.804607 -1.817397,-3.062993l0,-11.79302c0,-0.411474 0.078119,-0.822947 0.233011,-1.222213l0.437738,-0.809834c0.304845,-0.423683 0.700829,-0.779992 1.147546,-1.03185l10.067971,-5.676077c0.554916,-0.312901 1.189748,-0.477943 1.836254,-0.477943c0.645158,0 1.278194,0.164137 1.831315,0.475682z"/>
     <text xml:space="preserve" text-anchor="start" font-family="Euphoria, sans-serif" font-size="24" id="svg_3" y="23.5" x="49.484375" stroke-opacity="null" stroke-width="0" stroke="null" fill="#ffffff">Dog</text>
     <text xml:space="preserve" text-anchor="start" font-family="Euphoria, sans-serif" font-size="24" id="svg_4" y="24.5" x="91.929688" stroke-opacity="null" stroke-width="0" stroke="null" fill="#00fffa">Watch</text>
    </g>
   </g>
  </g>
 </g>
</svg>